<svg id="Layer_1" data-name="Layer 1" xmlns="http://www.w3.org/2000/svg" viewBox="0 0 100 100"><defs><style>.cls-1{fill:#6f6e9e;}.cls-2{fill:#c5c5d8;}.cls-3{fill:#e2e2ec;}</style></defs><title>Light stand</title><ellipse class="cls-1" cx="50" cy="91.17" rx="13.51" ry="7.8" transform="translate(-0.49 0.27) rotate(-0.31)"/><rect class="cls-1" x="48.66" y="31.99" width="2.68" height="61.08"/><path class="cls-2" d="M67,10.27h0c0-2.38-1.62-4.75-4.94-6.55C55.44.12,44.68.14,38,3.76c-3.32,1.8-5,4.15-5,6.51h0V32h0c0,2.53,1.62,5.05,4.94,7,6.62,3.82,17.38,3.8,24-.05C65.3,37,67,34.49,67,32h0Z"/><ellipse class="cls-3" cx="50" cy="10.73" rx="9.37" ry="16.7" transform="translate(39.01 60.68) rotate(-89.71)"/></svg>