<?xml version="1.0" encoding="UTF-8" standalone="no"?>
<svg
   xmlns:dc="http://purl.org/dc/elements/1.1/"
   xmlns:cc="http://creativecommons.org/ns#"
   xmlns:rdf="http://www.w3.org/1999/02/22-rdf-syntax-ns#"
   xmlns:svg="http://www.w3.org/2000/svg"
   xmlns="http://www.w3.org/2000/svg"
   xmlns:sodipodi="http://sodipodi.sourceforge.net/DTD/sodipodi-0.dtd"
   xmlns:inkscape="http://www.inkscape.org/namespaces/inkscape"
   id="svg3984"
   viewBox="0 0 599.99999 599.99998"
   version="1.1"
   inkscape:version="0.91 r13725"
   sodipodi:docname="street lamp-silhouette.svg"
   width="600"
   height="600">
  <defs
     id="defs9" />
  <sodipodi:namedview
     pagecolor="#ffffff"
     bordercolor="#666666"
     borderopacity="1"
     objecttolerance="10"
     gridtolerance="10"
     guidetolerance="10"
     inkscape:pageopacity="0"
     inkscape:pageshadow="2"
     inkscape:window-width="1510"
     inkscape:window-height="985"
     id="namedview7"
     showgrid="false"
     inkscape:zoom="0.90942994"
     inkscape:cx="505.75947"
     inkscape:cy="348.42583"
     inkscape:window-x="509"
     inkscape:window-y="42"
     inkscape:window-maximized="0"
     inkscape:current-layer="layer1" />
  <g
     id="layer1"
     transform="translate(-28.05,-133.90102)">
    <g
       id="g4176"
       transform="translate(-0.458927,0)">
      <g
         id="g4165">
        <g
           id="g4157"
           transform="matrix(0.86417526,0,0,0.86417526,83.774876,-53.578031)">
          <g
             transform="matrix(1.242403,0,0,1.242403,60.965386,-101.70329)"
             style="fill:#000000;fill-opacity:1"
             id="g4145">
            <g
               transform="translate(-22.171081,22.171081)"
               id="g4151">
              <path
                 inkscape:connector-curvature="0"
                 id="path4137"
                 d="m 168.63022,290.46894 1.79239,1.31997 c 5.96355,-2.3917 2.37174,-9.77505 -3.60645,-8.52108 -16.51281,3.4637 -13.94793,18.78959 -1.11075,21.03905 1.18989,0.20851 16.36645,1.57215 24.15978,0.67186 l 291.18535,5.10043 0.0844,-7.89123 -301.74772,-1.87386 c -1.15954,-1.93088 -0.95524,-2.93354 -3.91471,-2.46451 -2.8647,-0.36498 -1.82353,1.25753 -2.25583,2.71684 -19.80138,0.85226 -11.16948,-11.5919 -7.66922,-12.78432 2.68252,-0.91384 3.08273,2.68685 3.08273,2.68685 z"
                 style="fill:#000000;fill-opacity:1;fill-rule:evenodd;stroke:#000000;stroke-width:1px;stroke-linecap:butt;stroke-linejoin:miter;stroke-opacity:1"
                 sodipodi:nodetypes="ccssccccccscc" />
              <path
                 inkscape:connector-curvature="0"
                 id="path4139"
                 d="m 250.60286,324.26213 c 0.29965,1.04796 2.31137,2.73058 0.93906,8.24585 -5.33663,9.14346 -18.52892,-1.31302 -13.12925,-10.99942 7.94015,-14.10215 58.05766,-17.20214 58.05766,-17.20214 82.79411,10.19537 129.46393,70.7181 185.01972,148.23474 l 0.2999,13.09604 -15.56307,-22.47486 C 404.52508,345.30561 337.21799,310.87402 297.31763,310.33428 c -1.13572,-0.56786 -32.26432,0.6474 -49.19818,8.48221 -4.94205,2.8308 -11.08103,8.48277 -6.05409,12.49937 8.21787,5.88868 8.5375,-7.05373 3.1278,-5.18574 -0.48247,-5.82594 6.31922,-1.19772 5.4097,-1.86799 z"
                 style="fill:#000000;fill-opacity:1;fill-rule:evenodd;stroke:#000000;stroke-width:1px;stroke-linecap:butt;stroke-linejoin:miter;stroke-opacity:1"
                 sodipodi:nodetypes="cccccccccccc" />
              <path
                 inkscape:connector-curvature="0"
                 id="path4141"
                 d="M 480.97028,588.73652 C 479.86247,585.96699 218.69604,345.4043 183.82123,316.35278 c -2.02516,-1.68701 -7.03547,-2.41203 -7.03547,-2.41203 l 0.12617,-8.5835 -2.34428,0.22249 0,8.69474 c -13.44683,2.45645 -1.58265,27.67713 -7.27184,26.7368 l 0.82506,7.25529 c -3.10517,2.42593 -8.11555,2.19478 -14.19186,10.91285 l 11.12042,0.4599 -37.9535,19.68899 -17.50073,33.88086 8.1236,-0.47483 13.47962,77.94738 -1.17214,12.89356 -0.58607,4.10249 c 4.41592,-1.18203 7.07353,-3.91987 10.31186,-6.93652 l 55.95888,0.94965 c 3.93888,4.21585 6.87563,5.36868 12.26272,5.98687 l -5.27463,-14.45912 19.34033,-76.96789 c 1.55684,-0.66905 10.13413,-0.0963 10.13413,-0.0963 l -19.51126,-32.72363 -36.33638,-22.85676 0,-1.17214 9.77924,-0.44498 c 0,0 -5.3242,-7.1849 -14.49765,-10.3417 l 1.18878,-7.84643 c -3.65596,0.51439 -1.18323,-7.08727 -1.74501,-10.67042 6.52947,2.1454 11.40595,0.83704 14.28546,-8.9376 l 295.16546,271.0323 z"
                 style="fill:#000000;fill-opacity:1;fill-rule:evenodd;stroke:#000000;stroke-width:1px;stroke-linecap:butt;stroke-linejoin:miter;stroke-opacity:1"
                 sodipodi:nodetypes="cscccccccccccccccccccccccccccccc" />
              <path
                 inkscape:connector-curvature="0"
                 id="path4143"
                 d="m 124.75165,412.73434 89.08273,2.93035 -16.99605,78.53346 -59.19313,-1.17214 z"
                 style="fill:#ffffff;fill-opacity:1;fill-rule:evenodd;stroke:#000000;stroke-width:1px;stroke-linecap:butt;stroke-linejoin:miter;stroke-opacity:1" />
            </g>
          </g>
        </g>
      </g>
    </g>
  </g>
  <metadata
     id="metadata5">
    <rdf:RDF>
      <cc:Work>
        <dc:format>image/svg+xml</dc:format>
        <dc:type
           rdf:resource="http://purl.org/dc/dcmitype/StillImage" />
        <cc:license
           rdf:resource="http://creativecommons.org/publicdomain/zero/1.0/" />
        <dc:publisher>
          <cc:Agent
             rdf:about="http://openclipart.org/">
            <dc:title>Openclipart</dc:title>
          </cc:Agent>
        </dc:publisher>
        <dc:title></dc:title>
        <dc:date>2013-08-05T19:24:59</dc:date>
        <dc:description>Silhouette of a vintage street light traced from http://vintagefeedsacks.blogspot.se/2012/06/vintage-street-lamp-silhouette.html </dc:description>
        <dc:source>https://openclipart.org/detail/181555/vintage-street-lamp-silhouette-by-liftarn-181555</dc:source>
        <dc:creator>
          <cc:Agent>
            <dc:title>liftarn</dc:title>
          </cc:Agent>
        </dc:creator>
        <dc:subject>
          <rdf:Bag>
            <rdf:li>lamp</rdf:li>
            <rdf:li>light</rdf:li>
            <rdf:li>silhouette</rdf:li>
            <rdf:li>street lamp</rdf:li>
            <rdf:li>vintage</rdf:li>
          </rdf:Bag>
        </dc:subject>
      </cc:Work>
      <cc:License
         rdf:about="http://creativecommons.org/publicdomain/zero/1.0/">
        <cc:permits
           rdf:resource="http://creativecommons.org/ns#Reproduction" />
        <cc:permits
           rdf:resource="http://creativecommons.org/ns#Distribution" />
        <cc:permits
           rdf:resource="http://creativecommons.org/ns#DerivativeWorks" />
      </cc:License>
    </rdf:RDF>
  </metadata>
</svg>
